<?xml version="1.0" encoding="UTF-8"?>
<svg width="308px" height="501px" viewBox="0 0 308 501" version="1.1" xmlns="http://www.w3.org/2000/svg" xmlns:xlink="http://www.w3.org/1999/xlink">
    <g id="su-27" stroke="none" stroke-width="1" fill="none" fill-rule="evenodd">
        <g id="su-27-blue" transform="translate(154.000000, 250.500000) rotate(-90.000000) translate(-154.000000, -250.500000) translate(-96.000000, 97.000000)" fill="#2980B9" fill-rule="nonzero">
            <path d="M44.0017574,185.63181 C44.0017574,180.373462 44.0017574,175.121265 44.0017574,169.876098 C44.1695957,169.876098 44.3453427,169.876098 44.4991212,169.876098 C45.7724077,169.089631 47.6326889,169.319859 49.2565905,168.873462 C52.1432337,168.090509 55.5966608,167.407732 58.4903339,166.63181 C60.1414762,166.174868 63.4367311,166.446397 64.2223198,165.13884 C60.2372583,164.733743 55.9191564,162.842706 52.2425307,161.641476 C49.1019332,160.615114 46.228471,160.573813 43.0017574,159.640597 C35.6493848,157.539543 27.5,156.667838 17.7759226,156.633567 C11.9683655,156.613356 0.85676621,157.498242 0.54833036,152.407732 C1.76362034,151.63884 2.96485057,150.612478 4.54745163,150.14587 C6.56239011,149.5413 9.38400699,149.971001 11.7794376,149.905975 C14.8892794,149.796133 18.7785588,149.659051 22.2697715,149.659051 C25.1019332,149.659051 27.9297012,149.659051 30.7653778,149.659051 C38.7873462,147.640597 47.3822495,146.120386 54.9920913,143.659051 C57.7346221,142.766256 62.513181,142.478031 64.483304,140.920035 C60.1309314,140.473638 55.3049209,139.049209 51.2337434,137.913005 C49.0711775,137.308435 45.9578207,137.614235 44.2451669,136.42355 C43.7161687,135.54833 44.0017574,133.231107 44.0017574,131.905975 C44.0017574,128.178383 44.0017574,124.422671 44.0017574,120.674868 C48.4156414,120.736379 55.4358523,120.084358 59.4859402,119.185413 C61.0685413,118.832161 63.9692442,119.570298 64.7240773,118.440246 C62.9806678,117.983304 61.6247803,116.55536 60.238137,115.690685 C56.5518453,113.384007 52.8233743,111.1942 49.2574692,108.925307 C47.6994727,107.954305 44.5685413,107.363796 44.2460457,105.1942 C42.9762741,103.093146 43.2021089,96.4209135 42.4991212,93.4516692 C40.5632688,85.2170471 39.5878734,76.0246042 38.5140597,67.4912123 C43.1344464,64.810193 47.5105448,61.4947272 52.0043936,58.5079082 C53.8576449,57.2478028 55.8040421,54.9964847 58.2346221,54.495606 C59.6247803,56.5826007 62.2337434,58.4771525 64.2240773,59.9806675 C66.8910369,62.0131807 69.1599297,65.0984179 71.9780316,67.237258 C74.5386643,69.1836552 76.4130052,72.2970119 78.966608,74.2293494 C85.9894551,79.5325128 91.4305799,86.6520207 98.4499121,91.962214 C99.5307557,93.1159926 100.623023,94.2926183 101.68717,95.4595778 C104.560633,97.6221437 106.815466,100.292618 109.688049,102.444639 C110.68717,103.532513 111.688928,104.61072 112.684534,105.688049 C116.934095,105.688049 121.18717,105.688049 125.433216,105.688049 C126.627416,106.456942 133.142355,105.963093 135.164323,105.945518 C135.030756,102.965729 133.516696,100.003515 132.672232,97.4499118 C130.695079,91.5667835 129.311951,85.6353248 127.410369,79.9648502 C122.017575,63.8488573 118.550967,47.6063265 113.192443,31.5175743 C111.026362,25.0474513 109.413005,18.2407729 107.192443,11.5439364 C106.193322,8.52987661 104.676626,5.14938452 104.199473,1.81282916 C104.36116,1.81282916 104.521968,1.81282916 104.696837,1.81282916 C106.711775,-0.0061515114 116.240773,0.800526872 120.177504,0.800526872 C130.08348,0.800526872 139.990334,0.800526872 149.903339,0.800526872 C155.436731,0.800526872 162.26362,0.422670984 166.626538,1.54569383 C166.863796,1.99209102 166.952548,1.96485025 167.127416,2.55184497 C167.05536,2.55184497 166.962214,2.55184497 166.862917,2.55184497 C166.862917,2.63796097 166.862917,2.71704708 166.862917,2.80579928 C162.712654,4.75922634 154.72232,4.06590473 148.643234,4.0448151 C148.643234,4.14059717 148.643234,4.20650227 148.643234,4.30579928 C149.789982,5.11247766 150.5413,6.41651984 151.403339,7.53954269 C153.25659,10.0079082 155.748682,12.0123019 157.644112,14.535149 C158.872583,16.1827764 160.905097,17.3980664 162.137083,19.0246042 C166.5,24.7978907 172.029877,29.4973634 176.371705,35.2706499 C178.561511,38.1572931 181.942882,40.3611596 184.115993,43.2442879 C191.839192,53.4595778 202.130053,61.5360278 209.839192,71.7381367 C210.683655,72.4762738 211.504394,73.2311068 212.338313,73.9903336 C213.673989,75.3840067 214.898945,76.9112474 216.08348,78.4595778 C217.171353,79.4683652 218.249561,80.4674864 219.333919,81.4701227 C222.299648,85.4103687 226.102812,88.5140594 229.075571,92.4613353 C230.242531,93.5421789 231.405975,94.6239012 232.570299,95.7117747 C237.228471,101.886643 243.180141,107.75659 249.811951,111.944639 C262.98594,120.251318 279.390158,124.257469 296.257469,128.928822 C301.42355,129.831283 306.582601,130.768892 311.738137,131.667838 C316.042179,132.629174 321.318102,131.76362 325.468366,132.673989 C329.896309,133.628295 334.592267,132.76362 338.707381,133.676625 C339.795255,133.676625 340.869947,133.676625 341.957821,133.676625 C345.898067,134.531634 350.768893,134.061511 354.699473,134.926186 C359.896309,136.042179 366.130053,135.070298 371.175747,136.165202 C372.26362,136.165202 373.345343,136.165202 374.429701,136.165202 C379.572056,137.304921 385.743409,136.536028 390.920035,137.665202 C393.089631,137.754833 395.252197,137.83304 397.390158,137.915641 C403.743409,139.316344 411.278559,138.279437 417.628295,139.67311 C421.465729,139.755711 425.299648,139.838312 429.116872,139.91652 C436.332162,141.509666 445.119508,140.54833 452.101054,142.158172 C457.362917,143.359402 462.192443,143.036906 467.080844,144.403339 C470.314587,145.312829 473.815466,146.085237 476.826011,147.396309 C477.825132,147.853251 478.950791,149.029877 479.829525,149.400703 C480.574692,149.400703 481.318981,149.400703 482.064148,149.400703 C484.044815,149.89543 486.310193,150.581722 488.060633,151.158172 C490.666081,152.009666 494.637083,152.166959 497.057118,152.905096 C498.258348,153.272407 499.171353,152.476274 499.803163,153.40246 C497.307557,153.35413 496.167838,153.97891 494.307557,154.394551 C493.23638,154.394551 492.144991,154.394551 491.060633,154.394551 C488.726713,155.005272 486.172232,155.973638 483.818102,156.636203 C482.489455,156.814587 481.161687,156.983304 479.829525,157.151142 C478.964851,157.473638 477.969244,158.510544 477.072935,158.894551 C474.818102,159.643233 472.579965,160.394551 470.338313,161.152899 C463.51406,163.335676 455.705624,163.229349 448.366432,164.880492 C445.771529,165.463972 442.970123,165.120386 440.601933,165.63884 C430.956063,166.143233 421.297012,166.634446 411.637961,167.122144 C405.463093,168.492091 398.086116,167.530755 391.920914,168.876098 C390.815466,168.876098 389.747803,168.876098 388.6529,168.876098 C383.538664,170.015817 377.311951,169.260984 372.176626,170.390158 C371.095782,170.390158 370.00703,170.390158 368.939367,170.390158 C364.920035,171.272407 359.942882,170.743409 355.933216,171.629174 C354.858524,171.629174 353.78471,171.629174 352.695958,171.629174 C348.700351,172.521968 343.719684,172 339.710896,172.878734 C338.626538,172.878734 337.5413,172.878734 336.477153,172.878734 C332.296134,173.809314 327.363796,172.905975 322.966608,173.887522 C319.633568,174.629174 315.205624,173.82601 311.735501,174.629174 C306.23638,175.628295 300.740773,176.630052 295.239016,177.636203 C278.296134,182.414762 262.086995,186.735501 248.799648,195.108084 C243.249561,198.608963 238.220562,203.682776 234.318102,208.852372 C233.151142,209.92355 231.991213,211.007908 230.817223,212.086116 C228.79877,214.77065 226.347979,216.898945 224.329525,219.593146 C222.530756,221.96485 219.620387,223.695079 217.834798,226.094024 C209.092267,237.620386 197.355887,246.726713 188.606327,258.295254 C186.347979,261.275044 182.870826,263.553602 180.618629,266.533392 C174.100176,275.162566 165.656415,282.120386 159.141476,290.76362 C156.669596,294.014059 153.40949,296.691564 150.899824,300.021089 C150.188928,300.948154 149.238137,301.366432 148.641476,302.520211 C153.975395,302.520211 159.306678,302.520211 164.644112,302.520211 C165.097539,302.873462 165.731986,303.09666 166.374341,303.254833 C166.696837,303.783831 166.899824,303.834798 167.125659,304.514938 C167.053603,304.514938 166.960457,304.514938 166.86116,304.514938 C164.331283,306.924428 155.561511,305.753954 150.899824,305.753954 C141.738137,305.753954 132.58348,305.753954 123.419156,305.753954 C116.900703,305.753954 109.523726,305.919156 104.447276,304.747803 C104.357645,304.514059 104.282074,304.236379 104.196837,303.996485 C114.601054,269.47188 125.012302,234.891915 135.419156,200.35413 C133.414763,200.35413 131.41652,200.35413 129.408612,200.35413 C128.454306,200.961335 125.848858,200.594024 124.417399,200.594024 C120.507909,200.689806 116.584358,200.772407 112.681898,200.858523 C94.4551845,217.928822 76.2214411,235.001757 57.9771529,252.04833 C52.8216168,249.539543 48.224956,245.220562 43.5052724,242.052724 C41.940246,241.015817 38.7618629,240.072056 38.5105448,237.820738 C39.8286467,235.675747 39.3207381,230.663444 40,227.842706 C40.8857645,224.142355 40.7996485,220.081722 41.7539543,216.093146 C42.9384885,211.143233 43.8137082,205.376977 44.2425307,200.097539 C45.996485,199.647627 47.3488576,198.226713 48.7355008,197.351493 C52.0790861,195.29174 55.4086116,193.716168 58.7311072,191.615993 C60.5949033,190.431458 62.5105448,188.636203 64.7205623,187.867311 C64.7205623,187.788225 64.7205623,187.702109 64.7205623,187.620386 C61.2126537,186.981546 57.456942,187.442003 53.7469244,186.62478 C50.8224956,185.96485 47.2838312,185.68014 44.0017574,185.63181 Z" id="Path"></path>
        </g>
    </g>
</svg>
